<?xml version="1.0" encoding="utf-8"?>
<!-- Generator: Adobe Illustrator 19.2.1, SVG Export Plug-In . SVG Version: 6.00 Build 0)  -->
<svg version="1.1" id="Calque_1" xmlns="http://www.w3.org/2000/svg" xmlns:xlink="http://www.w3.org/1999/xlink" x="0px" y="0px"
	 viewBox="0 0 600 800" enable-background="new 0 0 600 800" xml:space="preserve">
<linearGradient id="SVGID_1_" gradientUnits="userSpaceOnUse" x1="300" y1="800" x2="300" y2="-1.346780e-008">
	<stop  offset="0" style="stop-color:#59D1E8"/>
	<stop  offset="1" style="stop-color:#008DC2"/>
</linearGradient>
<rect fill="url(#SVGID_1_)" width="600" height="800"/>
<path fill="#CCDE68" d="M600,479.1v302.7L0,799.9V424.9C203.8,391.1,453.3,465,600,479.1z"/>
<g>
	<path fill="#916036" d="M247.6,540.2c0-35.6,28.8-64.4,64.4-64.4s64.4,28.8,64.4,64.4v93H247.6V540.2z"/>
	<g>
		<g>
			<circle cx="291.9" cy="510.4" r="12.1"/>
			<circle fill="#FFFFFF" cx="297.1" cy="506.2" r="4.2"/>
		</g>
		<g>
			<circle cx="332.1" cy="510.4" r="12.1"/>
			<circle fill="#FFFFFF" cx="337.3" cy="506.2" r="4.2"/>
		</g>
	</g>
</g>
<path fill="#A1AB38" d="M600,533.8V800H0V466.3c28.5,7.7,50.2,16.4,61.7,23.7c40.1,25.5,185.8,134.8,296.9,120.2
	C416,602.7,504.1,563.6,600,533.8z"/>
<path fill="#808835" d="M600,582.4V800H0V643.7c121.6,15.7,238.9,46.1,337.3,44.6C418.8,687.1,522.1,625,600,582.4z"/>
<path fill="#A7805E" d="M371.2,592.5l19.6,9.9l6,14.8l-12.9,4.8H375l-14.3,5l-23.4-3l-25.3,9.2l-6.3-13.2l-23.7-0.7l-26,1.7l-5.3-10
	l-21-3l-2.3-11.4L242,584h19c0,0,13,4.3,14,4.3s20,5.3,20,5.3l21.3-0.3l21-2.3l21.4-2L371.2,592.5z"/>
<g>
	<g>
		<path fill="#FFFFFF" d="M92.6,150.9c-0.7,0-1.3-0.3-1.6-0.9c-1-1.5-1.8-3.2-2.5-5.1c-0.6-1.8-1.2-3.9-1.8-6.3
			c-0.4-1.8-0.8-3.6-1.1-5.4c-0.2-1.2-0.4-2.5-0.6-3.8l-1.1-0.1c-0.2,1.5-0.4,3.1-0.6,4.6c-0.3,2.2-0.8,4.5-1.3,6.8
			c-0.5,2.1-1,3.8-1.6,5.1c-0.6,1.4-1.3,2.7-2,3.7c-0.3,0.4-0.7,0.6-1.1,0.7c-0.4,0.1-0.8,0.2-1.1,0.2c-0.3,0.1-0.6,0.1-0.9,0.2
			c-0.4,0.1-0.8,0.1-1.3,0.1c-0.5,0-1,0-1.7,0c-4.4,0-7.5-0.5-9.4-1.5c-0.4-0.2-0.8-0.6-0.9-1.1c-0.9-2.3-1.7-5.1-2.4-8.4
			c-0.7-3.2-1.4-6.7-2-10.3c-0.2-1.3-0.5-2.9-0.8-4.8c-0.3-1.8-0.5-3.8-0.8-5.9c-0.3-2.2-0.6-4.5-0.8-6.8c-0.3-2.4-0.5-4.8-0.7-7.2
			c-0.3-3-0.5-5.7-0.6-8.2c-0.1-2.4-0.3-4.9-0.4-7.5c-0.1-1.1,0.8-2,1.9-2.1l9.2-0.6c0,0,0.1,0,0.1,0c0.5,0,1,0.2,1.4,0.5
			c0.4,0.4,0.6,0.9,0.6,1.4c0,2.9,0.1,5.9,0,9.1c0,3.1,0,6.6,0.2,10.2c0.1,3.7,0.4,7.8,0.7,12.2c0.3,4.1,0.8,8.6,1.5,13.4
			c0.1,0,0.3,0,0.5,0c0.5,0,0.9,0,1.1-0.1c0.1-0.7,0.2-1.5,0.2-2.4c0.1-1.4,0.2-2.8,0.2-4.1v-3.2c0-1.3,0-2.7-0.1-4.2
			c0-1.6-0.1-3.3-0.2-5.1c-0.1-1.8-0.2-3.7-0.4-5.6c-0.1-1.8-0.3-3.3-0.4-4.5c-0.1-1.2-0.3-2.3-0.4-3.2c-0.1-0.9-0.2-1.7-0.3-2.4
			c-0.1-0.7-0.2-1.4-0.4-2.1c-0.1-0.6,0-1.2,0.4-1.7c0.4-0.5,0.9-0.7,1.5-0.7c0,0,22.2-0.1,22.2-0.1c0.5,0,1.1,0.2,1.4,0.6
			c0.4,0.4,0.6,0.9,0.6,1.5c-0.1,3.2-0.2,6.4-0.2,9.6c0,3.2,0.1,6.4,0.2,9.4c0.1,3.1,0.3,6,0.6,8.9c0.2,2.3,0.5,4.6,0.8,6.6
			c0.2,0,0.3,0.1,0.3,0.1c0.3,0,0.6,0,0.8,0.1l0.2-41.3c0-1.1,0.8-1.9,1.9-2l14-0.9c0,0,0.1,0,0.1,0c0.5,0,1.1,0.2,1.4,0.6
			c0.4,0.4,0.6,1,0.5,1.6c-0.3,3.1-0.7,6.6-1.1,10.4c-0.4,3.8-0.9,7.8-1.4,11.8c-0.5,4-1,8.1-1.6,12c-0.6,4-1.1,7.7-1.6,11.2
			c-0.5,3.5-1,6.6-1.5,9.2c-0.5,2.7-0.9,4.8-1.2,6.2c-0.2,0.9-1,1.5-1.9,1.5C105.3,151.1,92.6,150.9,92.6,150.9z"/>
		<path d="M64.5,88.4c0,2.8,0.1,5.8,0,9c0,3.2,0,6.6,0.2,10.3c0.1,3.7,0.4,7.8,0.7,12.2c0.4,4.4,0.9,9.4,1.7,14.8
			c0.4,0.2,0.8,0.3,1.1,0.4c0.3,0.1,0.7,0.1,1.3,0.1c0.7,0,1.3,0,1.7-0.1c0.4-0.1,0.8-0.3,1.2-0.6c0.1-0.9,0.3-2.1,0.4-3.5
			c0.1-1.4,0.2-2.9,0.2-4.2c0-0.9,0-1.9,0-3.2c0-1.3,0-2.7-0.1-4.3c0-1.6-0.1-3.3-0.2-5.1c-0.1-1.8-0.2-3.7-0.4-5.6
			c-0.1-1.8-0.3-3.3-0.4-4.6c-0.1-1.3-0.3-2.3-0.4-3.3c-0.1-0.9-0.2-1.7-0.4-2.4c-0.1-0.7-0.2-1.4-0.4-2.1L93,96
			c-0.1,3.2-0.2,6.4-0.2,9.7c0,3.2,0.1,6.4,0.2,9.5c0.1,3.1,0.3,6.1,0.6,8.9c0.3,2.9,0.6,5.5,1,7.9c0.8,0.3,1.5,0.5,2,0.6
			c0.5,0,0.9,0.1,1.3,0.1c0.7,0,1.2-0.2,1.7-0.5l0.2-42.8l14-0.9c-0.3,3.1-0.7,6.6-1.1,10.4c-0.4,3.8-0.9,7.7-1.4,11.8
			c-0.5,4-1,8-1.6,12c-0.6,4-1.1,7.7-1.6,11.1c-0.5,3.5-1,6.5-1.5,9.2c-0.5,2.7-0.9,4.7-1.2,6.1l-12.7-0.2c-0.9-1.4-1.7-2.9-2.3-4.7
			c-0.6-1.8-1.2-3.8-1.8-6.1c-0.4-1.8-0.8-3.5-1.1-5.2c-0.3-1.7-0.5-3.5-0.8-5.3l-4.6-0.5c-0.2,2.2-0.5,4.3-0.9,6.5
			c-0.3,2.2-0.8,4.4-1.3,6.6c-0.5,1.9-1,3.5-1.5,4.8c-0.5,1.3-1.1,2.3-1.8,3.2c-0.4,0.1-0.7,0.2-1,0.2c-0.3,0-0.5,0.1-0.9,0.1
			c-0.3,0-0.7,0.1-1.1,0.1c-0.4,0-0.9,0-1.6,0c-4,0-6.8-0.4-8.4-1.3c-0.9-2.2-1.6-4.9-2.3-8.1c-0.7-3.2-1.4-6.6-2-10.2
			c-0.2-1.3-0.5-2.9-0.7-4.7c-0.3-1.8-0.5-3.8-0.8-5.9c-0.3-2.1-0.6-4.4-0.8-6.7c-0.3-2.4-0.5-4.8-0.7-7.2c-0.3-3-0.5-5.7-0.6-8.1
			c-0.1-2.4-0.3-4.9-0.4-7.5L64.5,88.4 M113.8,88.5L113.8,88.5 M93,96L93,96 M64.5,84.4c-0.1,0-0.2,0-0.3,0L55,85.1
			c-2.2,0.2-3.8,2-3.7,4.2c0.1,2.6,0.3,5,0.4,7.5c0.1,2.5,0.4,5.2,0.7,8.2c0.2,2.4,0.5,4.9,0.8,7.2c0.3,2.3,0.5,4.6,0.8,6.8
			c0.3,2.1,0.6,4.1,0.8,6c0.3,1.9,0.5,3.5,0.8,4.9c0.6,3.6,1.3,7.1,2,10.4c0.7,3.4,1.6,6.3,2.5,8.7c0.3,0.9,1,1.7,1.9,2.1
			c2.2,1.2,5.5,1.7,10.3,1.7c0.7,0,1.3,0,1.8,0c0.6,0,1-0.1,1.5-0.1c0.4-0.1,0.7-0.1,1-0.2c0.4-0.1,0.8-0.2,1.2-0.3
			c0.9-0.2,1.6-0.7,2.2-1.4c0.9-1.1,1.7-2.5,2.3-4.1c0.6-1.5,1.1-3.2,1.7-5.4c0,0,0,0,0-0.1c0.2-1,0.4-1.9,0.6-2.9
			c0.1,0.3,0.1,0.5,0.2,0.8c0.6,2.4,1.2,4.6,1.9,6.5c0.7,2,1.6,3.9,2.7,5.6c0.7,1.1,2,1.8,3.3,1.8l12.7,0.2c0,0,0,0,0.1,0
			c1.9,0,3.5-1.3,3.9-3.1c0.4-1.5,0.8-3.6,1.3-6.4c0.5-2.7,1-5.8,1.5-9.3c0.5-3.5,1.1-7.2,1.6-11.2c0.6-4,1.1-8,1.6-12.1
			c0.5-4,1-8,1.4-11.8c0.4-3.8,0.8-7.2,1.1-10.3c0-0.2,0-0.4,0-0.6c0-2.2-1.8-4-4-4c0,0,0,0,0,0c0,0,0,0-0.1,0c0,0,0,0,0,0
			c0,0,0,0,0,0c-0.1,0-0.1,0-0.2,0l-14,0.8c-2.1,0.1-3.7,1.9-3.8,4l0,3.8C95,92.4,94.1,92,93,92c0,0,0,0,0,0c0,0,0,0,0,0l-22.2,0.1
			c-0.8,0-1.5,0.2-2.2,0.7c0-1.5,0-3,0-4.4c0-1.1-0.5-2.1-1.3-2.9C66.5,84.8,65.5,84.4,64.5,84.4L64.5,84.4z"/>
	</g>
	<g>
		<path fill="#FFFFFF" d="M146,146.3c-1.9,0-3.3-0.1-4.3-0.3c-1.1-0.2-1.9-0.5-2.5-0.9c-0.7-0.4-1.1-1.3-0.9-2.1
			c0.3-1.6,0.6-3,0.8-4.1c0.2-1,0.4-2.1,0.5-3.3c0.1-1.2,0.2-2.5,0.3-3.9c0.1-1.5,0.2-3.5,0.2-5.9c0-1.4,0-2.7-0.1-3.9
			c0-0.4-0.1-0.8-0.1-1c-0.8-0.2-2.8-0.5-7.9-0.6l-3.8,0.6c-0.1,0.7-0.3,1.4-0.4,2.2c-0.2,1.3-0.4,2.9-0.6,4.9
			c-0.2,2.1-0.3,4.1-0.4,5.9c-0.1,1.8-0.1,3.3,0,4.7c0,0.5-0.1,1.1-0.5,1.5c-0.4,0.4-0.9,0.6-1.4,0.7c-2.1,0.1-3.8,0.2-5,0.3
			c-1,0.1-1.4,0.2-1.6,0.2c-0.3,0.2-0.7,0.3-1,0.3c-0.2,0-0.4,0-0.6-0.1c-0.6-0.2-1.1-0.6-1.3-1.2c-0.3-0.7-0.6-2.3-0.8-8.2
			c-0.2-4.3-0.4-10.5-0.6-18.3c-0.1-8.3-0.3-14.8-0.5-19.5c-0.2-5.7-0.4-7.9-0.5-8.6c-0.1-0.6,0.1-1.1,0.4-1.6
			c0.4-0.4,0.9-0.7,1.4-0.7l8.7-0.6c5.6-0.5,7.3-0.8,7.8-1c0.4-0.3,0.8-0.5,1.3-0.5c0.3,0,0.6,0.1,0.9,0.2c0.9,0.5,1.3,1.5,1,2.5
			c0,0.1-0.1,0.2-0.1,0.3c-0.1,0.2-0.4,1.5-1.3,8l-1.1,9.1c1.2-0.2,2.3-0.3,3.5-0.5c2.1-0.2,4.2-0.4,6.3-0.4c5.1,0,7.7,0.8,8.7,2.7
			c1.1,2.1,1.8,6.2,2.3,13c0.2,2.7,0.3,5.4,0.4,8.2c0.1,2.8,0.1,5.7,0.1,8.7c0,3.1,0,5.6-0.1,7.4c-0.1,2.6-0.4,3.4-0.6,3.9
			c0,0.1-0.1,0.2-0.1,0.3c-0.6,1-1.7,1.3-2.9,1.5C148.7,146.2,147.5,146.3,146,146.3z"/>
		<path d="M132.6,83.3L132.6,83.3 M132.6,83.3C132.6,83.3,132.6,83.3,132.6,83.3C132.6,83.3,132.6,83.3,132.6,83.3 M132.6,83.3
			c-0.3,0.6-0.8,3.5-1.5,8.6l-1.4,11.8c2-0.4,4-0.7,6-0.9c2-0.2,4-0.4,6.1-0.4c4.1,0,6.4,0.5,6.9,1.6c0.9,1.8,1.7,5.9,2.1,12.2
			c0.2,2.7,0.3,5.3,0.4,8.1c0.1,2.7,0.1,5.6,0.1,8.6c0,3.1,0,5.6-0.1,7.3c-0.1,1.7-0.2,2.8-0.4,3.3c-0.1,0.2-0.7,0.4-1.5,0.6
			c-0.9,0.2-2,0.2-3.4,0.2c-1.8,0-3.1-0.1-3.9-0.2c-0.9-0.2-1.5-0.4-1.8-0.6c0.3-1.6,0.6-3,0.8-4.1c0.2-1.1,0.4-2.3,0.5-3.4
			c0.1-1.2,0.2-2.5,0.3-4c0.1-1.5,0.2-3.5,0.2-6c0-1.5,0-2.9-0.1-4.1c-0.1-1.2-0.2-1.9-0.3-2.1c-0.7-0.9-4-1.3-9.9-1.3l-5.3,0.9
			c-0.2,1-0.5,2.2-0.7,3.6c-0.3,1.4-0.5,3.1-0.6,5.1c-0.2,2.1-0.3,4.1-0.4,5.9c-0.1,1.8-0.1,3.5,0,4.9c-2.1,0.1-3.8,0.2-5.1,0.3
			c-1.3,0.1-2.1,0.3-2.4,0.5c-0.3-0.8-0.5-3.3-0.7-7.6c-0.2-4.3-0.4-10.4-0.6-18.3c-0.1-8.3-0.3-14.8-0.5-19.5
			c-0.2-4.7-0.3-7.6-0.5-8.9l8.7-0.6C129.2,84.3,132.2,83.8,132.6,83.3 M132.6,79.3c-0.1,0-0.2,0-0.3,0c-0.6,0.1-1.2,0.3-1.8,0.6
			c0,0-0.1,0-0.1,0.1c-0.7,0.2-2.5,0.5-7.1,0.8l-8.6,0.6c-1.1,0.1-2.2,0.6-2.9,1.5c-0.7,0.9-1,2-0.8,3.1c0.1,0.6,0.3,2.5,0.5,8.4
			c0.2,4.7,0.3,11.2,0.5,19.5c0,0,0,0,0,0.1c0.2,7.9,0.5,14,0.6,18.3c0.3,6.5,0.6,7.9,0.9,8.8c0.4,1.2,1.4,2.1,2.6,2.5
			c0.4,0.1,0.8,0.2,1.2,0.2c0.6,0,1.2-0.1,1.8-0.4c0.2,0,0.5-0.1,1-0.1c1.2-0.1,2.9-0.2,4.9-0.3c1.1,0,2.1-0.5,2.8-1.3
			c0.7-0.8,1.1-1.9,1-2.9c-0.1-1.3-0.1-2.8,0-4.5c0.1-1.8,0.2-3.7,0.4-5.7c0,0,0,0,0-0.1c0.1-1.8,0.3-3.4,0.5-4.6
			c0.1-0.3,0.1-0.5,0.2-0.8l2.3-0.4c3,0,4.8,0.1,5.9,0.3c0.1,0.9,0.1,2,0,3.1c-0.1,2.4-0.2,4.4-0.2,5.9c-0.1,1.4-0.2,2.7-0.3,3.8
			c-0.1,1.1-0.3,2.1-0.4,3.1c-0.2,1.1-0.5,2.4-0.8,4c-0.3,1.6,0.4,3.3,1.8,4.2c0.8,0.5,1.8,0.9,3.2,1.1c1.1,0.2,2.6,0.3,4.7,0.3
			c1.6,0,3-0.1,4.1-0.3c0.9-0.2,3.1-0.6,4.2-2.5c0.1-0.2,0.2-0.4,0.3-0.6c0.3-0.8,0.6-1.9,0.7-4.6c0.1-1.8,0.1-4.3,0.1-7.5
			c0-3,0-5.9-0.1-8.7c-0.1-2.8-0.2-5.6-0.4-8.2c-0.7-9.1-1.7-12.1-2.6-13.8c-1.6-3.3-6-3.7-10.4-3.7c-2.2,0-4.4,0.1-6.6,0.4
			c-0.3,0-0.6,0.1-1,0.1l0.8-6.5c0.7-5.4,1.1-7.1,1.2-7.5c0.2-0.5,0.3-1,0.3-1.6c0-2.1-1.6-3.8-3.7-4
			C132.9,79.3,132.8,79.3,132.6,79.3L132.6,79.3z"/>
	</g>
	<g>
		<path fill="#FFFFFF" d="M179.9,146.5c-0.8,0-1.5-0.5-1.8-1.2l-0.7-1.6l-10.3,0.7c0,0-0.1,0-0.1,0c-6.4,0-9.7-0.8-11.2-2.8
			c-0.6-0.8-1.1-2.2-1.5-6.7c-0.1-1.7-0.2-3.3-0.3-4.8c0-1.5-0.1-3-0.1-4.5c0-2.6,0.4-4.3,1.2-5.4c0.4-0.5,0.9-1,1.7-1.4
			c0.7-0.4,1.5-0.7,2.7-1c1-0.3,2.3-0.5,3.8-0.7c1.5-0.2,3.2-0.4,5.2-0.5c1.8-0.1,3.6-0.3,5.2-0.3c1.6-0.1,3-0.2,4.2-0.3
			c1.1-0.1,2-0.2,2.7-0.3c0-0.3,0-0.5-0.1-0.8c-0.1-0.6-0.2-1.2-0.4-1.9c-0.2-0.6-0.4-1.2-0.6-1.7c-0.2-0.4-0.4-0.8-0.7-1.4
			c-0.1,0-0.2,0-0.4,0c-0.4,0-1.3,0.1-2.8,0.5c-1,0.3-2.2,0.6-3.6,1l0.2,1.7c0.1,0.9-0.3,1.7-1.1,2.1c-0.6,0.3-1.4,0.5-2.3,0.5
			c-0.6,0-1.3,0-2,0c-1.3,0-2.6-0.1-4-0.2c-1.4-0.1-3-0.4-4.7-0.8c-1.6-0.4-2.8-0.8-3.6-1.1c-1.2-0.5-1.6-0.7-1.9-1
			c-0.5-0.5-0.7-1.1-0.5-1.8c0.1-0.4,0.2-1,0.3-1.5c0.1-0.6,0.2-1.4,0.4-2.3c0.1-0.9,0.3-1.9,0.5-3.2l0.6-4.6c0.1-0.5,0.4-1,0.8-1.4
			c0.7-0.5,1.7-0.9,2.9-1.3c1-0.3,2.4-0.6,4.1-0.9c2.1-0.4,4-0.6,5.8-0.7c1.8-0.1,3.6-0.1,5.4-0.1c3.6,0,6.7,0.2,9.1,0.6
			c2.5,0.4,4.5,1.1,6.1,1.9c0.4,0.2,0.6,0.5,0.8,0.8c0.3,0.5,0.6,1.1,0.9,1.8c0.3,0.7,0.6,1.6,1,2.7c0.3,1,0.7,2.3,1.1,3.7
			c0.4,1.5,0.8,3.2,1.2,5.2c2,9,3,16.5,3,22.1c0,2.6-0.2,4.6-0.6,6.2c-0.5,1.9-1.4,3.3-2.7,4.2c-0.5,0.4-1.4,0.8-4.3,1.3
			c-2,0.4-4.8,0.8-8.5,1.2C180.1,146.5,180,146.5,179.9,146.5z M174.1,133.2c0.1,0,0.2,0.1,0.5,0.2c0.5,0.2,1.4,0.4,3.3,0.4
			c4.4,0,5.1-0.9,5.1-0.9c0,0,0.1-0.1,0.1-0.1c0.1-0.2,0.8-1.2,0.8-5.8c0-0.9-0.1-1.3-0.1-1.4c0-0.1-0.1-0.2-0.1-0.3
			c0,0-0.1-0.1-0.2-0.1l0,0c0,0-0.3-0.2-1.5-0.4c-0.7-0.2-1.5-0.3-2.2-0.3c-0.8,0-1.6,0-2.5,0c-1.4,0-2.1,0.2-2.5,0.3
			c-0.4,0.2-0.7,0.3-1,0.4c0,0.1-0.1,0.2-0.1,0.4c-0.1,0.4-0.2,1.2-0.2,2.8C173.7,132,174.1,133,174.1,133.2z"/>
		<path d="M173,96.8c3.5,0,6.5,0.2,8.8,0.6c2.3,0.4,4.2,1,5.5,1.7c0.2,0.4,0.5,1,0.8,1.6c0.3,0.6,0.6,1.5,0.9,2.4
			c0.3,1,0.7,2.2,1,3.6c0.4,1.4,0.8,3.1,1.2,5.1c2,8.9,3,16.2,3,21.7c0,2.4-0.2,4.3-0.5,5.7c-0.4,1.4-1,2.4-2,3.1
			c-0.4,0.3-1.6,0.6-3.5,1c-1.9,0.4-4.7,0.8-8.3,1.1l-1.2-2.9l-11.8,0.9c-5.4,0-8.6-0.7-9.6-2c-0.4-0.5-0.8-2.4-1.1-5.7
			c-0.1-1.6-0.2-3.2-0.3-4.7c0-1.5-0.1-3-0.1-4.4c0-2.1,0.3-3.5,0.9-4.3c0.2-0.3,0.5-0.6,1.1-0.9c0.5-0.3,1.3-0.5,2.2-0.8
			c0.9-0.2,2.1-0.4,3.5-0.6c1.4-0.2,3.1-0.4,5.1-0.5c1.8-0.1,3.6-0.2,5.2-0.3c1.6-0.1,3-0.2,4.3-0.3c1.2-0.1,2.2-0.2,3-0.4
			c0.8-0.1,1.3-0.3,1.5-0.5c0-0.9,0-1.7-0.1-2.4s-0.2-1.5-0.5-2.3c-0.2-0.8-0.5-1.4-0.7-1.9c-0.2-0.5-0.5-1.1-0.9-1.8
			c-0.1-0.2-0.3-0.4-0.7-0.5c-0.4-0.1-0.8-0.2-1.2-0.2c-0.8,0-1.9,0.2-3.3,0.5c-1.4,0.4-3.2,0.9-5.3,1.5l0.5,3.4
			c-0.4,0.2-0.9,0.3-1.5,0.3c-0.6,0-1.2,0-1.9,0c-1.2,0-2.5-0.1-3.8-0.2c-1.3-0.1-2.8-0.4-4.5-0.7c-1.5-0.4-2.6-0.7-3.3-1
			c-0.8-0.3-1.2-0.5-1.3-0.6c0.1-0.5,0.2-1,0.3-1.6c0.1-0.6,0.2-1.4,0.4-2.3c0.1-0.9,0.3-2,0.5-3.2c0.2-1.3,0.4-2.8,0.6-4.6
			c0.5-0.4,1.3-0.7,2.2-1c1-0.3,2.3-0.6,4-0.9c2-0.4,3.8-0.6,5.6-0.7C169.5,96.9,171.2,96.8,173,96.8 M177.9,135.7
			c3.7,0,5.9-0.6,6.7-1.7c0.9-1,1.3-3.4,1.3-7.1c0-0.8,0-1.4-0.1-1.8c-0.1-0.4-0.2-0.8-0.4-1c-0.2-0.2-0.5-0.5-0.8-0.7
			c-0.3-0.2-1-0.4-2.1-0.7c-0.9-0.2-1.7-0.3-2.5-0.3c-0.8,0-1.7,0-2.5,0c-1.4,0-2.4,0.2-3.2,0.5c-0.8,0.3-1.4,0.6-1.7,0.8
			c-0.2,0.3-0.4,0.8-0.6,1.5c-0.1,0.7-0.2,1.8-0.2,3.2c0,2.9,0.2,4.8,0.6,5.7c0.2,0.5,0.7,0.9,1.6,1.2
			C174.9,135.6,176.2,135.7,177.9,135.7 M173,92.8c-1.9,0-3.7,0-5.5,0.1c-1.9,0.1-4,0.4-6.1,0.8c-1.8,0.4-3.2,0.7-4.3,1
			c-1.5,0.4-2.6,0.9-3.6,1.6c-0.9,0.6-1.5,1.6-1.6,2.7l-0.3,2.2l-0.3,2.4c-0.2,1.3-0.3,2.3-0.4,3.1c-0.1,0.9-0.3,1.7-0.4,2.3
			c-0.1,0.6-0.2,1.1-0.3,1.5c-0.3,1.3,0.1,2.7,1.1,3.6c0.6,0.6,1.3,1,2.6,1.5c0.8,0.3,1.8,0.6,3,1c-0.4,0.2-0.8,0.3-1.1,0.5
			c-1,0.6-1.8,1.2-2.4,2c-1.1,1.5-1.6,3.5-1.6,6.6c0,1.5,0,3,0.1,4.5c0,1.6,0.1,3.2,0.3,4.9c0.4,5,1,6.6,1.9,7.8
			c1.9,2.5,5.6,3.6,12.8,3.6c0.1,0,0.2,0,0.3,0l8.9-0.6l0.1,0.2c0.6,1.5,2.1,2.5,3.7,2.5c0.1,0,0.3,0,0.4,0c3.8-0.4,6.6-0.8,8.7-1.2
			c3.1-0.6,4.2-1.1,5-1.6c0,0,0,0,0.1,0c1.8-1.2,2.9-3,3.5-5.4c0.4-1.7,0.7-3.9,0.7-6.7c0-5.8-1-13.2-3.1-22.5
			c-0.4-2-0.9-3.8-1.2-5.3c-0.4-1.5-0.8-2.7-1.1-3.8c-0.4-1.2-0.7-2.1-1.1-2.9c-0.3-0.8-0.6-1.4-0.9-1.9c-0.4-0.7-1-1.3-1.7-1.6
			c-1.8-0.9-3.9-1.6-6.7-2.1C180,93,176.9,92.8,173,92.8L173,92.8z M174.4,112.9c0.7-0.2,1.3-0.4,1.8-0.5c0.6-0.2,1.1-0.3,1.5-0.3
			c0,0,0,0.1,0.1,0.1c0.2,0.4,0.3,0.8,0.5,1.4c0,0.1,0.1,0.2,0.1,0.4c-0.2,0-0.4,0-0.6,0.1c-1,0.1-2.1,0.2-3.4,0.2
			C174.5,113.8,174.5,113.3,174.4,112.9L174.4,112.9z M175.8,126.5c0.2-0.1,0.7-0.2,1.7-0.2c0.8,0,1.6,0,2.4,0
			c0.6,0,1.2,0.1,1.8,0.2c0.1,0,0.2,0,0.3,0.1c0,0.1,0,0.1,0,0.2c0,2.7-0.3,4-0.4,4.5c-0.5,0.1-1.5,0.3-3.6,0.3c-1,0-1.6-0.1-2-0.1
			c-0.1-0.6-0.1-1.6-0.1-3.3C175.7,127.5,175.7,126.9,175.8,126.5L175.8,126.5z"/>
	</g>
	<g>
		<path fill="#FFFFFF" d="M208,148.8c-6.5,0-10.3-1.1-12-3.5c-0.6-0.9-1-2.2-1.3-4c-0.2-1.5-0.3-3.5-0.3-5.9c0-2.3,0.1-4.8,0.2-7.4
			c0.1-2.6,0.4-5.5,0.8-8.5c0.3-2.6,0.7-4.7,1-6.3c0.4-1.7,0.8-3,1.4-3.9c1.6-2.5,3.9-4.2,6.9-5.4c2.8-1.1,6.4-1.6,10.8-1.6
			c3.1,0,6.1,0.2,8.7,0.7c2.6,0.5,5,1,7.2,1.6c2.3,0.7,3.9,3.3,5.3,8.6c0.2,0.7,0.4,1.4,0.6,2.3c0.2,0.8,0.4,1.7,0.5,2.5
			c0.2,0.8,0.3,1.6,0.4,2.4c0.1,0.7,0.2,1.3,0.3,1.7c0,0.1,0,0.3,0,0.4c0,2.7-2.4,4.1-7.2,4.1c-1.1,0-2.1-0.1-3.2-0.2
			c-1.1-0.1-2.2-0.2-3.3-0.4c-3.3-0.6-3.9-0.9-4.4-1.6c-0.5-0.8-0.4-1.9,0.2-2.5c0,0,0,0,0,0c0,0,0.1-0.2,0.4-0.7
			c0.2-0.5,0.4-1.1,0.5-1.7c0.3-1.7,0.5-3.1,0.6-4.4c-0.2-0.1-0.4-0.2-0.6-0.3c-0.8-0.4-1.7-0.9-2.8-1.6c-0.8-0.5-1.6-0.9-2.3-1.2
			c-0.1-0.1-0.3-0.1-0.5-0.1c-0.1,0-0.2,0-0.4,0c-0.3,0.7-1.1,2.9-1.9,10.5c-0.8,6.8-1.1,11.6-0.8,14.3c0,0.3,0,0.5,0.1,0.6
			c0.7,0,1.4-0.1,2.1-0.2c1-0.2,2-0.3,2.9-0.6c0,0,0.1,0,0.1,0c0.3,0,0.5-0.1,0.6-0.2l0.4-2.4c0.4-2.7,2.1-3.1,2.8-3.1l13.2-1.1
			c0.1,0,0.1,0,0.2,0c1,0,1.8,0.7,2,1.7l1.5,11.1c0.1,1.1-0.6,2-1.6,2.2l-9.5,1.7c-4,0.7-7.7,1.2-10.9,1.5
			C213.3,148.6,210.4,148.8,208,148.8z"/>
		<path d="M215.5,104.3c3,0,5.8,0.2,8.3,0.7c2.5,0.5,4.9,1,7,1.6c1.5,0.4,2.8,2.8,3.9,7.2c0.2,0.7,0.4,1.4,0.6,2.2
			c0.2,0.8,0.4,1.6,0.5,2.4c0.2,0.8,0.3,1.6,0.4,2.3c0.1,0.7,0.2,1.3,0.3,1.8c0,1.4-1.7,2.1-5.2,2.1c-1,0-2,0-3-0.1
			c-1-0.1-2.1-0.2-3.2-0.4c-2-0.4-3-0.6-3.1-0.8c0.2-0.2,0.5-0.7,0.8-1.3c0.3-0.6,0.5-1.4,0.6-2.2c0.5-2.5,0.7-4.5,0.7-6.1
			c-0.5-0.1-1.1-0.3-1.8-0.7c-0.7-0.4-1.6-0.9-2.7-1.5c-0.9-0.6-1.7-1-2.5-1.3c-0.4-0.2-0.8-0.2-1.3-0.2s-0.9,0.1-1.4,0.2
			c-1.1,0.5-2,4.5-2.8,12.1c-0.8,6.9-1.1,11.8-0.9,14.7c0.1,1.7,0.5,2.5,1.1,2.5c1.2,0,2.3-0.1,3.3-0.2c1-0.2,2.1-0.4,3.1-0.6
			c0.5-0.1,1-0.2,1.3-0.4c0.4-0.2,0.6-0.5,0.8-0.9l0.4-2.8c0.1-0.9,0.4-1.4,0.9-1.4l13.2-1.1l1.5,11.1l-9.5,1.7
			c-4,0.7-7.6,1.2-10.7,1.5c-3.2,0.3-6,0.5-8.4,0.5c-5.6,0-9.1-0.9-10.4-2.7c-0.4-0.6-0.7-1.7-0.9-3.1c-0.2-1.5-0.3-3.3-0.3-5.6
			s0.1-4.7,0.2-7.3c0.1-2.6,0.4-5.4,0.8-8.3c0.3-2.6,0.7-4.6,1-6.1c0.3-1.5,0.7-2.6,1.1-3.3c1.3-2,3.3-3.5,5.9-4.5
			C208,104.8,211.3,104.3,215.5,104.3 M215.5,100.3c-4.7,0-8.5,0.6-11.5,1.7c-3.4,1.3-6,3.3-7.8,6.1c0,0-0.1,0.1-0.1,0.1
			c-0.7,1.1-1.2,2.6-1.6,4.5c-0.4,1.6-0.7,3.8-1.1,6.4c-0.4,3.1-0.7,6-0.8,8.6c-0.1,2.6-0.2,5.2-0.2,7.5c0,2.5,0.1,4.5,0.3,6.1
			c0.3,2.2,0.8,3.7,1.6,4.9c2.1,3,6.5,4.4,13.7,4.4c2.5,0,5.5-0.2,8.8-0.5c3.2-0.3,6.9-0.9,11-1.5l9.6-1.7c2.1-0.4,3.5-2.3,3.3-4.5
			l-1.5-11.1c-0.2-1.6-1.4-2.9-2.9-3.3c3.8-1.2,4.4-3.8,4.4-5.5c0-0.3,0-0.5-0.1-0.8c-0.1-0.4-0.2-1-0.3-1.6
			c-0.1-0.8-0.3-1.6-0.5-2.5c-0.2-0.8-0.4-1.7-0.6-2.5c-0.2-0.9-0.4-1.7-0.6-2.4c-1.1-4.1-2.8-8.8-6.6-10c-2.3-0.7-4.7-1.2-7.4-1.7
			C221.8,100.6,218.7,100.3,215.5,100.3L215.5,100.3z M214.8,135.3c0-2.2,0.1-6,0.9-12.5c0.5-4.3,0.9-6.8,1.2-8.2
			c0.2,0.1,0.5,0.3,0.7,0.4c0,0,0,0,0.1,0c0.9,0.5,1.7,1,2.4,1.4c-0.1,0.8-0.3,1.8-0.4,2.8c0,0,0,0,0,0.1c-0.1,0.5-0.2,0.9-0.4,1.2
			c-0.1,0.2-0.1,0.3-0.2,0.3c-1.2,1.4-1.3,3.3-0.3,4.8c1.1,1.6,2.6,1.9,5.7,2.5c0,0,0,0,0.1,0c1.1,0.2,2.2,0.3,3.2,0.4l-6.1,0.5
			c-1.9,0.1-4.1,1.4-4.6,4.8l-0.2,1C216.2,135,215.5,135.2,214.8,135.3L214.8,135.3z"/>
	</g>
	<g>
		<path fill="#FFFFFF" d="M290.4,151.6c-0.5,0-1-0.2-1.4-0.5c-0.4-0.4-0.6-0.9-0.6-1.4l-0.2-13.6h-11.3l-0.2,11.5
			c0,1.1-0.9,1.9-1.9,2c0,0-13.7,0.4-13.7,0.4c-0.6,0-1.2-0.3-1.6-0.8c-0.4-0.5-0.5-1.1-0.4-1.8l11.4-42.9l-5.1,0.4c0,0-0.1,0-0.1,0
			c-0.5,0-1-0.2-1.4-0.6c-0.4-0.4-0.6-0.9-0.6-1.5l0.4-16c0-1.1,0.9-1.9,1.9-2c0,0,33.1-1.2,33.2-1.2c1,0,1.8,0.7,2,1.7l9.4,63.3
			c0.1,0.6-0.1,1.1-0.4,1.6s-0.9,0.7-1.5,0.7C308.2,150.9,290.4,151.6,290.4,151.6z M283.5,120.7l10.3-0.6l-3.8-19.9l-3.8,0.3
			L283.5,120.7z"/>
		<path d="M298.7,85.5l9.4,63.3l-17.7,0.8l-0.3-15.5h-15.2l-0.3,13.4l-13.6,0.4l12.1-45.7l-7.9,0.6l0.4-16L298.7,85.5 M281.2,122.8
			l15-0.9L291.6,98l-7.2,0.6L281.2,122.8 M298.7,81.5c0,0-0.1,0-0.1,0l-33.1,1.2c-2.1,0.1-3.8,1.8-3.9,3.9l-0.4,16
			c0,1.1,0.4,2.2,1.2,3c0.7,0.7,1.7,1.1,2.8,1.1c0.1,0,0.2,0,0.3,0l2.3-0.2l-10.7,40.2c-0.3,1.2-0.1,2.5,0.7,3.5
			c0.8,1,1.9,1.5,3.1,1.5c0,0,0.1,0,0.1,0l13.6-0.4c2.1-0.1,3.8-1.8,3.9-3.9l0.2-9.5h7.3l0.2,11.6c0,1.1,0.5,2.1,1.3,2.8
			c0.7,0.7,1.7,1.1,2.7,1.1c0.1,0,0.1,0,0.2,0l17.7-0.8c1.1,0,2.2-0.6,2.9-1.5c0.7-0.9,1-2,0.9-3.1l-9.4-63.3
			C302.4,83,300.7,81.5,298.7,81.5L298.7,81.5z M287.9,102.3l0.4,0l3,15.9l-5.6,0.3L287.9,102.3L287.9,102.3z"/>
	</g>
	<g>
		<path fill="#FFFFFF" d="M369.9,152.1c-0.6,0-1.1-0.2-1.5-0.6c-0.4-0.4-0.6-1-0.5-1.5l1.5-20.1l-5.6,20.8c-0.2,0.9-1,1.5-1.9,1.5
			h-3.5c-1,0-1.8-0.7-2-1.6l-7.5-36.9l1.6,35.2c0,0.5-0.2,1.1-0.5,1.5s-0.9,0.6-1.4,0.6c0,0-14.9,0.2-14.9,0.2
			c-0.5,0-1.1-0.2-1.4-0.6c-0.4-0.4-0.6-0.9-0.6-1.5l2.3-42.8l-1.2-0.6c-0.7-0.3-1.1-1-1.1-1.8V88.9c0-1.1,0.9-2,2-2l18.4-0.4l0.7,0
			c0.9,0,1.8,0.7,2,1.6l6.1,28.2l6.5-31.2c0.2-0.9,1-1.6,2-1.6c0,0,14,0.7,14,0.7c1,0.1,1.9,0.9,1.9,1.9l1.8,63.7
			c0,0.5-0.2,1.1-0.6,1.4s-0.9,0.6-1.4,0.6C384.9,151.9,369.9,152.1,369.9,152.1z"/>
		<path d="M369.1,85.5l13.9,0.7l1.8,63.7l-15.1,0.2l2.1-27.9l-2-2.2l-8.2,30.1h-3.5l-9.4-46.1l-2.4,2.1l2,42.8l-14.9,0.2l2.4-44.1
			l-2.4-1.2V88.9l18.4-0.4h0.7l7.2,33.6h1.6L369.1,85.5 M369.1,81.5c-1.9,0-3.5,1.3-3.9,3.2l-4.6,22l-4.1-19c-0.4-1.8-2-3.2-3.9-3.2
			H352c0,0-0.1,0-0.1,0l-18.4,0.4c-2.2,0-3.9,1.8-3.9,4v14.9c0,1.5,0.9,2.9,2.2,3.6l0.1,0l-2.3,41.5c-0.1,1.1,0.3,2.2,1.1,3
			c0.8,0.8,1.8,1.2,2.9,1.2c0,0,0,0,0.1,0l14.9-0.2c1.1,0,2.1-0.5,2.9-1.3c0.7-0.8,1.1-1.8,1.1-2.9l-0.4-9.5l2.4,11.7
			c0.4,1.9,2,3.2,3.9,3.2h3.5c1.8,0,3.4-1.2,3.9-3l0.2-0.7c0.1,0.9,0.5,1.7,1.1,2.4c0.8,0.8,1.8,1.3,2.9,1.3c0,0,0,0,0.1,0l15.1-0.2
			c1.1,0,2.1-0.5,2.8-1.2c0.7-0.8,1.1-1.8,1.1-2.9l-1.8-63.7c-0.1-2.1-1.7-3.8-3.8-3.9l-13.9-0.7C369.3,81.5,369.2,81.5,369.1,81.5
			L369.1,81.5z"/>
	</g>
	<g>
		<path fill="#FFFFFF" d="M405.1,149.9c-1.7,0-3.4-0.1-4.9-0.3c-1.6-0.2-3.1-0.6-4.6-1.2c-1.5-0.5-2.8-1.1-3.8-2
			c-1-0.9-1.7-1.7-2-2.5c-1.2-2.8-2.2-7-3.2-12.7c-0.4-3.1-0.7-5.9-0.9-8.6c-0.1-2.6-0.2-5.1-0.2-7.5c0-3,0.2-5.5,0.6-7.5
			c0.5-2.3,1.3-3.9,2.5-4.9c1.7-1.6,4.3-2.7,7.5-3.2c2.9-0.5,6.5-0.8,10.8-0.9c1.2-0.1,2.4-0.1,3.6-0.1c0.3,0,0.5,0,0.8,0
			c1.3,0,2.8,0.1,4.4,0.3c1.9,0.2,3.6,0.6,5.1,1c2.1,0.6,2.8,0.9,3.2,1.1c0,0,0.1,0,0.1,0.1c3.1,2,4.5,6.6,4.5,14
			c0,2.8-0.2,5.5-0.5,8.2c-0.3,2.7-0.9,5.5-1.6,8.2c-0.8,3-1.8,5.6-2.8,7.6c-1,2.1-2.2,3.9-3.4,5.3C417,148,411.8,149.9,405.1,149.9
			z M401.6,129.7c1.5,0.5,3.1,0.8,4.6,0.8c1.3,0,2.3-0.2,2.9-0.6c0.6-0.4,1-1.2,1.2-2.2c1-3.3,1.5-6.1,1.7-8.5
			c0.2-2.5,0.3-4.4,0.3-5.7c0-1.8-0.2-2.5-0.3-2.6c-0.1-0.2-0.3-0.3-0.7-0.5c-0.7-0.2-1.4-0.4-2.2-0.5c-0.9-0.1-1.9-0.1-2.9-0.2
			c-0.3,0-0.6,0-1,0c-0.7,0-1.3,0-1.9,0c-1,0-1.8,0.1-2.6,0.1c-0.3,0-0.5,0.1-0.6,0.1c0,0,0,0.1-0.1,0.1c-0.2,0.6-0.5,1.2-0.6,1.9
			c-0.1,0.5-0.3,1.6-0.3,3.5c0,1.8,0.1,3.5,0.2,5.1c0.2,1.6,0.4,3.2,0.8,4.7c0.3,1.6,0.7,2.8,1,3.5
			C401.3,129.4,401.5,129.6,401.6,129.7z"/>
		<path d="M410.5,100.5c0.3,0,0.5,0,0.8,0c1.3,0,2.7,0.1,4.2,0.3c1.8,0.2,3.4,0.5,4.8,0.9c1.4,0.4,2.3,0.7,2.8,0.9
			c2.4,1.6,3.6,5.7,3.6,12.4c0,2.7-0.2,5.4-0.5,8s-0.9,5.3-1.6,7.9c-0.8,2.9-1.7,5.3-2.6,7.3c-0.9,2-2,3.6-3.1,4.8
			c-3,3.2-7.6,4.8-13.8,4.8c-1.7,0-3.2-0.1-4.7-0.3c-1.4-0.2-2.9-0.6-4.2-1.1c-1.3-0.4-2.3-0.9-3.1-1.6c-0.8-0.7-1.3-1.3-1.5-1.8
			c-1.1-2.6-2.1-6.7-3.1-12.2c-0.4-3-0.7-5.8-0.9-8.3c-0.1-2.6-0.2-5.1-0.2-7.4c0-2.8,0.2-5.2,0.6-7c0.4-1.8,1-3.1,1.8-3.8
			c1.5-1.4,3.7-2.3,6.5-2.7c2.8-0.4,6.3-0.7,10.5-0.9C408.2,100.6,409.4,100.5,410.5,100.5 M406.2,132.5c1.8,0,3.2-0.4,4.1-1.1
			s1.6-1.8,2-3.3c1-3.4,1.6-6.3,1.8-8.9c0.2-2.6,0.3-4.5,0.3-5.8c0-1.6-0.2-2.8-0.5-3.4c-0.3-0.7-0.9-1.2-1.9-1.5
			c-0.8-0.3-1.7-0.5-2.7-0.6c-1-0.1-2-0.2-3.1-0.2c-0.3,0-0.7,0-1,0c-0.7,0-1.4,0-2,0c-1,0-1.9,0.1-2.7,0.1
			c-0.9,0.1-1.5,0.3-1.7,0.5c-0.3,0.2-0.5,0.5-0.6,0.7c-0.3,0.7-0.6,1.5-0.8,2.4c-0.2,0.9-0.3,2.2-0.3,3.9c0,1.8,0.1,3.6,0.2,5.3
			c0.2,1.7,0.4,3.4,0.8,5c0.3,1.7,0.7,3,1.2,4c0.5,0.9,0.9,1.5,1.4,1.7C402.5,132.2,404.4,132.5,406.2,132.5 M410.5,96.5
			C410.5,96.5,410.5,96.5,410.5,96.5c-1.1,0-2.4,0-3.7,0.1c-4.3,0.1-8,0.5-10.9,0.9c-3.6,0.6-6.4,1.8-8.5,3.7
			c-1.5,1.3-2.5,3.2-3.1,5.9c-0.5,2.1-0.7,4.7-0.7,7.9c0,2.4,0.1,5,0.2,7.6c0.1,2.7,0.4,5.6,0.9,8.7c0,0,0,0.1,0,0.1
			c1,5.9,2.1,10.2,3.3,13.1c0,0,0,0.1,0,0.1c0.5,1.1,1.3,2.1,2.5,3.2c1.2,1,2.7,1.8,4.4,2.4c1.6,0.6,3.3,1,4.9,1.3
			c1.6,0.2,3.4,0.4,5.2,0.4c7.3,0,12.9-2,16.7-6.1c0,0,0.1-0.1,0.1-0.1c1.3-1.5,2.6-3.4,3.7-5.7c1-2.2,2-4.8,2.9-7.9
			c0.8-2.9,1.3-5.7,1.7-8.5c0.4-2.8,0.5-5.6,0.5-8.5c0-8.3-1.7-13.3-5.4-15.7c-0.1,0-0.2-0.1-0.2-0.1c-0.7-0.4-1.8-0.8-3.7-1.3
			c-1.6-0.4-3.4-0.8-5.3-1c-1.7-0.2-3.2-0.3-4.6-0.4C411,96.5,410.8,96.5,410.5,96.5L410.5,96.5z M401.4,111.9c0.6,0,1.3-0.1,2-0.1
			c0.6,0,1.2,0,1.8,0c0.3,0,0.6,0,0.9,0c0.9,0,1.9,0.1,2.8,0.2c0.5,0,1,0.1,1.4,0.2c0,0.3,0.1,0.7,0.1,1.3c0,1.2-0.1,3.1-0.3,5.5
			c-0.2,2.3-0.7,5-1.6,8c0,0,0,0.1,0,0.1c-0.2,0.6-0.4,1-0.5,1.1c0,0,0,0,0,0c0,0-0.4,0.2-1.6,0.2c-1.1,0-2.2-0.2-3.3-0.5
			c-0.2-0.4-0.5-1.2-0.9-2.9c0-0.1,0-0.1,0-0.2c-0.3-1.4-0.6-2.9-0.7-4.4c-0.2-1.6-0.2-3.2-0.2-4.9c0-1.8,0.1-2.7,0.2-3
			C401.3,112.3,401.4,112.1,401.4,111.9L401.4,111.9z"/>
	</g>
	<g>
		<path fill="#FFFFFF" d="M431.6,148.7c-1.1,0-2-0.9-2-1.9l-2.2-62.2c0-0.7,0.3-1.4,1-1.8c0.3-0.2,0.7-0.3,1-0.3
			c0.4,0,0.7,0.1,1,0.3c0.6,0.4,1.4,0.7,2.3,0.9c0.9,0.2,1.9,0.3,3,0.3c1.9,0,3.7-0.3,5.6-0.8c1.9-0.6,4.1-1.5,6.6-2.7
			c0.3-0.1,0.6-0.2,0.9-0.2c0.5,0,1,0.2,1.4,0.6c0.6,0.6,0.8,1.5,0.5,2.2c-0.3,0.8-0.8,2.6-1.3,6.6c-0.4,3.4-0.8,7.8-1.1,13.2
			c-0.3,5.4-0.5,11.8-0.6,19.1c-0.1,7.3-0.2,15.6-0.2,24.7c0,1.1-0.9,2-2,2H431.6z"/>
		<path d="M448.7,82.3L448.7,82.3 M448.7,82.3c-0.6,1.3-1.1,3.7-1.5,7.1c-0.4,3.4-0.8,7.9-1.1,13.3c-0.3,5.4-0.5,11.8-0.6,19.2
			c-0.1,7.4-0.2,15.6-0.2,24.7h-13.7l-2.2-62.2c0.8,0.5,1.7,0.8,2.8,1.1c1.1,0.3,2.2,0.4,3.4,0.4c2.1,0,4.1-0.3,6.1-0.9
			C443.8,84.4,446.1,83.5,448.7,82.3 M448.7,78.3c-0.1,0-0.2,0-0.3,0c-0.5,0-1.1,0.2-1.5,0.4c-2.3,1.1-4.4,2-6.2,2.5
			c-1.6,0.5-3.3,0.7-5,0.7c-0.9,0-1.7-0.1-2.5-0.3c-0.7-0.2-1.3-0.4-1.7-0.7c-0.6-0.4-1.3-0.6-2-0.6c-0.7,0-1.4,0.2-2,0.6
			c-1.3,0.7-2,2.1-2,3.6l2.2,62.2c0.1,2.2,1.8,3.9,4,3.9h13.7c2.2,0,4-1.8,4-4c0-9.1,0.1-17.4,0.2-24.7c0.1-7.3,0.3-13.7,0.6-19.1
			c0.3-5.3,0.6-9.7,1-13c0.5-3.9,0.9-5.4,1.2-6c0.2-0.5,0.4-1.1,0.4-1.7C452.7,80.1,450.9,78.3,448.7,78.3
			C448.7,78.3,448.7,78.3,448.7,78.3L448.7,78.3z M448.7,86.3L448.7,86.3L448.7,86.3L448.7,86.3z"/>
	</g>
	<g>
		<path fill="#FFFFFF" d="M468.5,143.8c-5,0-8.8-0.3-11.7-0.8c-3.3-0.6-5.4-1.8-6.5-3.4c-1-1.4-2.2-4.4-2.2-14.5
			c0-2.6,0.1-5.2,0.3-7.6c0.2-2.4,0.4-4.9,0.7-7.3c0.7-5.4,1.6-8.8,2.9-10.7c1.9-3.1,7.1-4.5,16.3-4.5c3.5,0,6.5,0.1,9,0.4
			c2.7,0.3,4.8,0.8,6.5,1.6c0,0,0.1,0,0.1,0.1c2.2,1.2,3.8,4.5,5.3,10.9c0.9,4.6,1.3,8,1.3,10.5v0.3c0,0.4,0,0.7-0.2,1.1
			c-0.4,0.9-1.3,1.4-2.9,2c-1.4,0.5-3.5,1.1-6.4,1.7c-0.6,0.1-1.1,0.2-1.7,0.3c1.6-0.2,3.4-0.3,5.3-0.3c1.1,0,1.8,0,2.4,0.1
			c0.4,0.1,0.9,0.2,1.3,0.3c0.5,0.1,1,0.5,1.3,1s0.3,1,0.2,1.6l-4.7,15.5c-0.2,0.8-1,1.4-1.8,1.4l-4.3,0.2
			C478.9,143.5,468.5,143.8,468.5,143.8z M469.8,127.8l1,0l-0.1-0.6c-0.1-0.6,0-1.1,0.3-1.6c0.3-0.5,0.8-0.8,1.4-0.8
			c0.3,0,0.7-0.1,1-0.1c-0.6,0.1-1.2,0.1-1.9,0.2c-3,0.3-6,0.4-8.9,0.4c0,0-0.1,0-0.1,0l-2.5-0.2c0,0.4,0.1,0.9,0.2,1.3
			c0.1,0.3,0.2,0.5,0.2,0.7L469.8,127.8z M459.6,116.2c0.2,0.1,0.9,0.3,2.8,0.3c1.2,0,2.3,0,3.3-0.1c0.9,0,1.9-0.2,2.8-0.3
			c1.1-0.2,1.7-0.5,2-0.7c0.2-0.1,0.3-0.2,0.4-0.3c0-0.1,0-0.3,0.1-0.5c0-0.5,0-1.2,0-1.9c0-1.2-0.2-1.5-0.2-1.5
			c0,0-0.1-0.1-0.1-0.1c-0.1-0.1-0.7-0.3-2.1-0.5c-1.1-0.1-2.2-0.2-3-0.3c-0.8-0.1-1.6-0.1-2.4-0.1c-2.5,0-3.6,0.2-4.1,0.3
			c0,0.2,0,0.4,0,0.8v1.9c0,0.5,0,1.1,0.1,1.6C459.3,115.6,459.4,116,459.6,116.2z"/>
		<path d="M468.1,97c3.4,0,6.3,0.1,8.8,0.4c2.5,0.3,4.4,0.7,5.9,1.4c1.6,0.9,3,4,4.3,9.6c0.9,4.4,1.3,7.7,1.3,10.1v0.4
			c0.1,0.2-0.5,0.6-1.8,1.1c-1.3,0.5-3.3,1-6,1.6c-3.1,0.7-6.2,1.1-9.2,1.4c-3,0.3-5.9,0.4-8.7,0.4l-4.7-0.3v1.3
			c0,0.8,0.1,1.7,0.4,2.7c0.2,1,0.6,1.7,1.1,2.2l10.2,0.6l3.3,0.1c0.1,0,0.2-0.1,0.2-0.4l-0.2-1.3l-0.3-1.3c1.9-0.2,3.8-0.5,5.6-0.9
			c1.8-0.3,3.9-0.5,6.3-0.5c0.9,0,1.6,0,2,0.1c0.4,0.1,0.8,0.2,1.2,0.2l-4.7,15.5l-4.3,0.2l-10.4,0.3c-4.8,0-8.6-0.3-11.4-0.8
			c-2.7-0.5-4.5-1.4-5.3-2.6c-1.2-1.6-1.8-6-1.8-13.3c0-2.6,0.1-5.1,0.2-7.5c0.2-2.4,0.4-4.8,0.7-7.2c0.7-5,1.5-8.2,2.6-9.8
			C455,98.2,459.9,97,468.1,97 M462.4,118.5c1.2,0,2.4,0,3.4-0.1c1,0,2.1-0.2,3.1-0.4c1.1-0.2,2-0.5,2.6-0.9
			c0.6-0.4,1.1-0.7,1.2-1.1c0.1-0.3,0.2-0.8,0.2-1.3c0-0.5,0-1.2,0-2c0-1.4-0.3-2.4-0.8-2.9c-0.4-0.5-1.5-0.9-3.3-1.2
			c-1.2-0.1-2.3-0.2-3.2-0.3c-0.9-0.1-1.7-0.1-2.6-0.1c-3.5,0-5.4,0.4-5.8,1.1c-0.2,0.4-0.3,1.1-0.3,2c0,0.6,0,1.2,0,1.9
			c0,0.6,0,1.3,0.1,1.9c0.1,1.1,0.4,1.9,0.9,2.5C458.6,118.2,460,118.5,462.4,118.5 M468.1,93c-10,0-15.6,1.7-18,5.4
			c-1.4,2.2-2.4,5.7-3.2,11.4c0,0,0,0,0,0.1c-0.3,2.4-0.5,4.9-0.7,7.4c-0.2,2.5-0.3,5.1-0.3,7.8c0,10.5,1.2,13.8,2.6,15.6
			c1.4,2.1,4,3.5,7.8,4.3c3,0.6,7,0.9,12.1,0.9c0,0,0.1,0,0.1,0l10.4-0.3c0,0,0.1,0,0.1,0l4.3-0.2c1.7-0.1,3.1-1.2,3.6-2.8l4.7-15.5
			c0.3-1,0.2-2.2-0.4-3.1c-0.3-0.5-0.7-0.9-1.1-1.2c0.8-0.5,1.4-1.1,1.9-2.1c0.3-0.6,0.4-1.3,0.3-2v-0.2c0-2.7-0.4-6.2-1.4-10.9
			c0,0,0-0.1,0-0.1c-1.6-7-3.5-10.7-6.2-12.2c-0.1,0-0.2-0.1-0.3-0.1c-1.9-0.8-4.2-1.4-7.1-1.7C474.7,93.1,471.6,93,468.1,93
			L468.1,93z M461,112.2c0.5,0,1.2-0.1,2.1-0.1c0.7,0,1.5,0,2.3,0.1c0.8,0.1,1.8,0.2,2.9,0.3c0.2,0,0.4,0.1,0.6,0.1c0,0,0,0,0,0
			c0,0.4,0,0.8,0,1.2c-0.2,0.1-0.5,0.2-0.9,0.2c-0.8,0.1-1.6,0.2-2.4,0.3c-1,0-2.1,0.1-3.2,0.1c-0.5,0-0.9,0-1.2,0
			c-0.1-0.4-0.1-0.8-0.1-1.2V112.2L461,112.2z"/>
	</g>
	<g>
		<path fill="#FFFFFF" d="M514.1,146.8c-0.6,0-1.1-0.2-1.5-0.7c-0.4-0.4-0.6-1-0.5-1.5c0.3-2.8,0.5-5.1,0.5-6.8c0.1-2.1,0.1-3,0-3.4
			c0-0.6,0.2-1.2,0.7-1.7c0.4-0.3,0.8-0.5,1.3-0.5c0.1,0,0.3,0,0.4,0l10.7,2.3c0.9,0.2,1.6,1,1.6,2c0,1,0.5,3.1,2.7,7.3
			c0.3,0.6,0.3,1.4-0.1,2s-1,1-1.7,1H514.1z M519.4,129.1c-1.8,0-6,0-6-3.1c0-0.1,0-0.2,0-0.3c0.4-2.3,0.7-4.6,0.9-6.9
			c0.2-2.2,0.3-4.6,0.3-6.9c0-6-1.1-15.1-3.2-26.9c-0.2-0.9,0.3-1.9,1.2-2.2c5.7-2.2,10.2-3.3,13.9-3.3c2,0,3.3,0.5,4.1,1.5
			c0.6,0.8,0.8,1.8,0.6,2.8c-0.8,4.3-1.5,8.9-2.1,13.4c-0.6,4.5-1,9.2-1.3,13.9l-1.4,16c-0.1,1-0.9,1.8-1.9,1.8l-1.7,0.1l-3.3,0.2
			C519.5,129.1,519.5,129.1,519.4,129.1z"/>
		<path d="M526.6,81.4c2.1,0,3,0.6,2.7,1.8c-0.9,4.4-1.6,9-2.2,13.6c-0.6,4.6-1,9.3-1.3,14l-1.3,16l-1.7,0.1l-3.3,0.2
			c-2.7,0-4-0.4-4-1.1c0.4-2.4,0.7-4.7,0.9-7c0.2-2.3,0.4-4.7,0.4-7.1c0-6.2-1.1-15.2-3.3-27.3C518.9,82.5,523.3,81.4,526.6,81.4
			 M514.7,134.2l10.7,2.3c0,1.8,1,4.6,2.9,8.2h-14.1c0.3-2.8,0.5-5.1,0.5-6.9C514.7,136.1,514.7,134.9,514.7,134.2 M526.6,77.4
			c-3.9,0-8.7,1.1-14.6,3.5c-1.8,0.7-2.8,2.6-2.5,4.4c2.1,11.7,3.2,20.7,3.2,26.6c0,2.3-0.1,4.5-0.3,6.7c-0.2,2.2-0.5,4.5-0.9,6.8
			c0,0.2-0.1,0.4-0.1,0.6c0,1.5,0.8,3.3,2.8,4.3c-0.8,0.1-1.6,0.4-2.2,1c-1,0.8-1.5,2.1-1.4,3.3c0,0.2,0,1,0,3.2
			c-0.1,1.7-0.2,3.9-0.5,6.7c-0.1,1.1,0.3,2.2,1,3.1c0.8,0.8,1.8,1.3,3,1.3h14.1c1.4,0,2.7-0.7,3.4-1.9c0.7-1.2,0.8-2.7,0.1-3.9
			c-2.3-4.3-2.4-5.9-2.4-6.4c0-1.9-1.3-3.5-3.1-3.9l-7.3-1.6c0.2,0,0.4,0,0.6,0c0.1,0,0.2,0,0.3,0l3.3-0.2l1.7-0.1
			c2-0.1,3.7-1.7,3.8-3.7l1.3-16c0,0,0-0.1,0-0.1c0.3-4.6,0.7-9.2,1.3-13.7c0.6-4.5,1.3-8.9,2.1-13.3c0.4-1.6,0-3.2-1-4.4
			C530.5,77.4,527.6,77.4,526.6,77.4L526.6,77.4z"/>
	</g>
</g>
<g id="play">
	<g>
		<path fill="#FFFFFF" d="M259.7,242.9c0.6,0.1,1.3,0.4,2.1,0.7c0.8,0.4,1.6,1,2.5,1.8c0.7,0.7,1.2,1.6,1.6,2.6
			c0.4,1.1,0.7,2.2,0.8,3.4c0.4,2.7,0.6,5.1,0.6,7.1c0.1,2,0.1,4.1,0.1,6.2c0,5.5-0.4,9.7-1.1,12.8c-0.5,2.2-1.2,3.6-2,4.3
			c-0.4,0.2-1,0.5-2,0.8c-0.9,0.3-2.4,0.6-4.4,0.8c-1.1,0.1-2.3,0.2-3.6,0.3c-1.2,0.1-2.5,0.1-3.8,0.1l-0.1,10.9l-15.5,0.9v-52.4
			l14.5-0.7c1.7-0.1,3.4-0.1,5.2-0.1C256.3,242.4,258,242.6,259.7,242.9z M251.5,249.7c-0.2-0.6-0.7-1-1.2-1.3
			c-0.6-0.3-1.5-0.5-2.6-0.5l-4.5,0.3l-0.5,29.6l3.4,0.4c2.4,0,4.2-0.5,5.5-1.5c0.3-0.3,0.5-1,0.7-2.1c0.1-1.1,0.2-2.6,0.3-4.4
			c0.1-1.9,0.1-3.9,0.1-5.9c0-2.1-0.1-4.1-0.1-6c0-0.6,0-1.4-0.1-2.2c0-0.8-0.1-1.7-0.1-2.5c-0.1-0.8-0.1-1.6-0.3-2.3
			C251.8,250.6,251.7,250.1,251.5,249.7z"/>
		<path fill="#FFFFFF" d="M278,245.2c1.7,0,3.4-0.3,5.1-0.8c1.7-0.5,3.6-1.3,5.7-2.3c-0.5,1.1-0.9,3.1-1.2,6
			c-0.4,2.9-0.7,6.6-0.9,11.1c-0.2,4.5-0.4,9.9-0.5,16c-0.1,6.1-0.1,13-0.1,20.7h-11.4l-1.8-52c0.7,0.4,1.5,0.7,2.3,0.9
			C276,245.1,277,245.2,278,245.2z"/>
		<path fill="#FFFFFF" d="M292.9,266.3c0.1-0.4,0.2-0.9,0.2-1.4c0.1-0.5,0.2-1.1,0.3-1.9c0.1-0.8,0.2-1.7,0.4-2.7
			c0.1-1,0.3-2.3,0.5-3.8c0.4-0.3,1.1-0.6,1.9-0.8c0.8-0.2,1.9-0.5,3.4-0.7c1.7-0.3,3.2-0.5,4.7-0.6c1.4-0.1,2.9-0.1,4.4-0.1
			c3,0,5.4,0.2,7.4,0.5c1.9,0.3,3.5,0.8,4.6,1.4c0.2,0.4,0.4,0.8,0.7,1.3c0.2,0.5,0.5,1.2,0.7,2c0.3,0.8,0.5,1.8,0.9,3
			c0.3,1.2,0.7,2.6,1,4.3c1.7,7.5,2.5,13.5,2.5,18.1c0,2-0.1,3.6-0.4,4.8c-0.3,1.2-0.8,2-1.6,2.6c-0.4,0.2-1.3,0.5-3,0.8
			c-1.6,0.3-3.9,0.6-6.9,0.9l-1-2.4l-9.8,0.7c-4.5,0-7.2-0.6-8-1.7c-0.4-0.4-0.7-2-0.9-4.7c-0.1-1.3-0.2-2.6-0.2-3.9
			c0-1.3-0.1-2.5-0.1-3.7c0-1.8,0.2-3,0.7-3.6c0.2-0.2,0.5-0.5,0.9-0.7s1-0.5,1.8-0.7c0.8-0.2,1.8-0.4,3-0.5
			c1.2-0.2,2.6-0.3,4.3-0.4c1.5-0.1,3-0.2,4.3-0.3c1.3-0.1,2.5-0.1,3.6-0.2c1-0.1,1.9-0.2,2.5-0.3c0.7-0.1,1.1-0.2,1.3-0.4
			c0-0.8,0-1.4-0.1-2c-0.1-0.6-0.2-1.2-0.4-1.9c-0.2-0.6-0.4-1.2-0.6-1.6c-0.2-0.4-0.5-0.9-0.8-1.5c-0.1-0.2-0.3-0.3-0.6-0.4
			c-0.3-0.1-0.7-0.1-1-0.1c-0.7,0-1.6,0.1-2.8,0.4c-1.2,0.3-2.6,0.7-4.4,1.3l0.4,2.8c-0.3,0.2-0.7,0.2-1.2,0.3c-0.5,0-1,0-1.6,0
			c-1,0-2.1,0-3.2-0.1c-1.1-0.1-2.4-0.3-3.7-0.6c-1.2-0.3-2.2-0.6-2.8-0.9C293.3,266.6,292.9,266.4,292.9,266.3z M308,285.3
			c0.2,0.4,0.6,0.8,1.4,1c0.8,0.3,1.8,0.4,3.3,0.4c3.1,0,5-0.5,5.6-1.4c0.7-0.9,1.1-2.8,1.1-5.9c0-0.7,0-1.2-0.1-1.5
			c-0.1-0.4-0.2-0.6-0.3-0.8c-0.2-0.2-0.4-0.4-0.7-0.6c-0.3-0.2-0.9-0.4-1.8-0.6c-0.7-0.2-1.4-0.2-2.1-0.3c-0.7,0-1.4,0-2.1,0
			c-1.1,0-2,0.1-2.7,0.4c-0.7,0.3-1.1,0.5-1.5,0.7c-0.2,0.2-0.4,0.7-0.5,1.3s-0.2,1.5-0.2,2.6C307.4,283,307.6,284.6,308,285.3z"/>
		<path fill="#FFFFFF" d="M365,261.4c-0.5,0.4-1.5,1.7-2.9,3.6c-1.5,2-3.3,4.5-5.3,7.6c-2.1,3.1-4.3,6.6-6.8,10.5
			c-2.5,3.9-5,7.9-7.4,12.1l-12.3,0.2l9.5-13c-0.8-1.1-1.7-2.7-2.8-4.7c-1.1-2-2.2-4.4-3.4-7.1c-1.1-2.5-1.9-4.6-2.6-6.4
			c-0.7-1.8-1.2-3.4-1.7-4.8c0.6-0.5,4.4-2,11.3-4.6c0.2,0.8,0.5,2,1,3.6c0.5,1.6,1.2,3.4,2.1,5.3c1,2.2,1.9,3.8,2.7,4.9
			c0.8,1.1,1.5,2,2.1,2.5c0.8-1.1,1.5-2.2,2.2-3.5c0.7-1.3,1.5-2.9,2.5-4.9c0.4-0.8,0.8-1.7,1.2-2.5c0.4-0.9,0.7-1.6,1-2.3
			c0.3-0.7,0.5-1.2,0.7-1.7c0.2-0.5,0.3-0.8,0.4-0.8L365,261.4z"/>
	</g>
</g>
</svg>