<?xml version="1.0" encoding="utf-8"?>
<!-- Generator: Adobe Illustrator 19.2.1, SVG Export Plug-In . SVG Version: 6.00 Build 0)  -->
<svg version="1.1" id="Calque_1" xmlns="http://www.w3.org/2000/svg" xmlns:xlink="http://www.w3.org/1999/xlink" x="0px" y="0px"
	 viewBox="0 0 89.3 89.3" enable-background="new 0 0 89.3 89.3" xml:space="preserve">
<g id="mole">
	<path fill="#916036" d="M77.1,37.5v27.7l-2.6-1.3l-6.3-1.8l-10.8,1l-10.6,1.2L36,64.4c0,0-9.6-2.7-10.1-2.7c-0.5,0-7.1-2.2-7.1-2.2
		h-6.8V37.5C12.1,19.5,26.7,5,44.6,5C62.6,5,77.1,19.5,77.1,37.5z"/>
	<g>
		<g>
			<circle cx="34.5" cy="22.4" r="6.1"/>
			<circle fill="#FFFFFF" cx="37.1" cy="20.3" r="2.1"/>
		</g>
		<g>
			<circle cx="54.8" cy="22.4" r="6.1"/>
			<circle fill="#FFFFFF" cx="57.4" cy="20.3" r="2.1"/>
		</g>
	</g>
</g>
<path fill="#A7805E" d="M74.5,63.8l9.9,5l3,7.5l-6.5,2.4h-4.5l-7.2,2.5l-11.8-1.5l-12.8,4.6l-3.2-6.7l-12-0.4l-13.1,0.9l-2.7-5
	L3.1,71.7l-1.2-5.8l7.4-6.4h9.6c0,0,6.6,2.2,7.1,2.2c0.5,0,10.1,2.7,10.1,2.7l10.7-0.2l10.6-1.2l10.8-1L74.5,63.8z"/>
</svg>
